# Blender v2.93.6 OBJ File: ''
# www.blender.org
mtllib ddt.mtl
o Body_Body.002
v -10.979308 -4.945761 -39.700455
v -13.714102 -4.945762 -39.281952
v -14.197681 -4.945759 -37.039028
v -0.287431 -4.945755 -32.354568
v -8.528636 -4.945760 -22.073925
v -8.481586 -2.945760 -23.154243
v -8.528636 -4.945760 -22.073925
v -14.197681 -4.945759 -37.039028
v -13.516981 -2.945759 -36.446640
v -1.161525 -2.945759 -32.285786
v -13.087454 -2.945759 -38.438869
v -13.714102 -4.945762 -39.281952
v -10.979308 -4.945761 -39.700455
v -10.658339 -2.945759 -38.810600
v -0.287431 -4.945755 -32.354568
v 1.228395 8.919306 -39.354496
v 0.893443 6.490190 -39.726223
v 1.282445 9.348831 -37.362267
v 2.378695 -3.006624 -33.201412
v 1.734305 4.313435 -24.069868
v -1.660537 4.313435 -24.069868
v -2.301050 -3.006624 -33.201412
v -1.205079 9.348831 -37.362267
v -0.816620 6.490190 -39.726223
v -1.151045 8.919302 -39.354496
v -0.816620 6.490190 -39.726223
v -2.301050 -3.006624 -33.201412
v 2.378695 -3.006624 -33.201412
v 0.893443 6.490190 -39.726223
v -1.151045 8.919302 -39.354496
v 1.228395 8.919306 -39.354496
v -1.205079 9.348831 -37.362267
v 1.282445 9.348831 -37.362267
v -1.660537 4.313435 -24.069868
v 1.734305 4.313435 -24.069868
v 10.979309 -4.945761 -39.700455
v 14.197681 -4.945759 -37.039028
v 13.714102 -4.945762 -39.281952
v 0.287431 -4.945755 -32.354568
v 8.528637 -4.945760 -22.073925
v 8.528637 -4.945760 -22.073925
v 8.500785 -2.958366 -23.157080
v 14.197681 -4.945759 -37.039028
v 13.503056 -3.020801 -36.461830
v 1.158780 -2.871689 -32.270573
v 13.087454 -2.945759 -38.438869
v 13.714102 -4.945762 -39.281952
v 10.979309 -4.945761 -39.700455
v 10.638803 -2.986779 -38.818745
v 0.287431 -4.945755 -32.354568
v 1.228395 -16.873404 -39.354496
v 1.282445 -17.302929 -37.362267
v 0.893443 -14.444287 -39.726223
v 0.981956 -4.947474 -33.201412
v 1.457981 -12.267534 -24.069868
v -1.384212 -12.267534 -24.069868
v -1.205079 -17.302929 -37.362267
v -0.904311 -4.947474 -33.201412
v -0.816620 -14.444287 -39.726223
v -1.151045 -16.873400 -39.354496
v 0.981956 -4.947474 -33.201412
v -0.904311 -4.947474 -33.201412
v -0.816620 -14.444287 -39.726223
v 0.893443 -14.444287 -39.726223
v -1.151045 -16.873400 -39.354496
v 1.228395 -16.873404 -39.354496
v -1.205079 -17.302929 -37.362267
v 1.282445 -17.302929 -37.362267
v -1.384212 -12.267534 -24.069868
v 1.457981 -12.267534 -24.069868
v 25.137375 -5.031701 -18.314505
v 26.595978 -5.031701 -13.452379
v 27.183399 -5.031701 -16.487432
v 10.631833 -5.031701 -17.615826
v 15.332869 -5.031701 0.060047
v 11.247993 -3.031701 -16.983820
v 10.631833 -5.031701 -17.615826
v 25.137375 -5.031701 -18.314505
v 24.673552 -3.031701 -17.630484
v 27.183399 -5.031701 -16.487432
v 26.023556 -3.031701 -13.130358
v 15.599020 -3.031701 -0.623976
v 26.567242 -3.031701 -15.939443
v 26.595978 -5.031701 -13.452379
v 15.332869 -5.031701 0.060047
v -1.698618 -3.353988 -35.455746
v -0.966149 -2.561685 -35.455746
v -10.579670 1.925467 -17.967642
v -2.102765 -3.923868 -35.455746
v -12.834459 -3.977050 -17.967642
v -1.934286 -4.702941 -35.455746
v -10.579670 -9.879566 -17.967642
v -1.102211 -5.464056 -35.455746
v -6.093617 -14.365617 -17.967642
v 0.034419 -5.754102 -35.455746
v -6.093617 6.411517 -17.967642
v 0.034419 8.053503 -17.967642
v 0.034420 11.552220 -8.314349
v 0.034419 -2.306360 -35.455746
v 6.162456 6.411517 -17.967642
v 1.034974 -2.561685 -35.455746
v -7.989869 9.402140 -8.314349
v 10.648478 1.925467 -17.967642
v 1.767430 -3.353988 -35.455746
v 2.171604 -3.923868 -35.455746
v -13.864069 3.527936 -8.314350
v 8.058692 9.402140 -8.314349
v 12.903297 -3.977050 -17.967642
v 2.003094 -4.702941 -35.455746
v 13.932870 3.527936 -8.314350
v 10.648478 -9.879566 -17.967642
v 1.171035 -5.464056 -35.455746
v 6.162456 -14.365617 -17.967642
v 0.034419 -16.007603 -17.967642
v 0.034420 -19.506321 -8.314351
v 8.058692 -17.356241 -8.314351
v 13.932870 -11.482037 -8.314350
v 16.885391 -3.977050 -8.314350
v 16.214241 5.138847 1.338940
v 16.214241 -13.092949 1.338939
v -7.989869 -17.356241 -8.314351
v 9.375834 11.977279 1.338940
v 19.651390 -3.977051 1.338939
v 9.375834 -19.931381 1.338939
v -13.864069 -11.482037 -8.314350
v -16.816586 -3.977050 -8.314350
v -16.145449 -13.092949 1.338939
v -9.307027 -19.931381 1.338939
v -16.145449 5.138847 1.338940
v 16.483549 -13.248435 9.963767
v 0.034419 -22.434389 1.338939
v 0.034419 -22.745338 9.963766
v -9.462487 -20.200661 9.963766
v -19.582617 -3.977051 1.338939
v -9.307027 11.977279 1.338940
v 9.531326 -20.200661 9.963766
v -16.414709 -13.248435 9.963767
v 0.034419 14.480288 1.338940
v 0.034419 14.791237 9.963768
v -9.462487 12.246559 9.963768
v -16.414709 5.294333 9.963767
v -19.909100 -3.977051 9.963767
v -16.520727 -3.977052 19.943964
v 0.034419 -19.518320 19.943964
v -7.848969 -17.405964 19.943964
v -13.620052 -11.634925 19.943964
v 7.917791 -17.405964 19.943964
v 13.688845 -11.634925 19.943966
v -7.848969 9.451860 19.943964
v -13.620052 3.680821 19.943964
v -9.409394 -3.977052 31.659536
v 0.034419 11.564217 19.943964
v -4.462638 -11.540642 31.659538
v -7.754715 -8.248564 31.659536
v 0.034419 -12.745630 31.659536
v 4.531462 -11.540642 31.659536
v 7.823523 -8.248564 31.659536
v -4.462638 3.586538 31.659538
v -7.754715 0.294459 31.659536
v -7.139477 -3.977052 34.825489
v 0.034419 4.791527 31.659536
v 3.450561 -9.668452 34.825489
v 5.951336 -7.167651 34.825489
v 0.034419 -10.583816 34.825489
v -3.381722 -9.668452 34.825489
v -5.882528 -7.167651 34.825489
v -3.381722 1.714348 34.825489
v -5.882528 -0.786453 34.825489
v -4.330766 -3.977052 37.966194
v 0.034419 2.629711 34.825489
v 2.113063 -7.351866 37.966202
v 0.034419 -7.908830 37.966194
v -2.044255 -7.351866 37.966202
v 3.634750 -5.830182 37.966194
v 0.034419 -3.977052 39.726223
v -3.565943 -5.830182 37.966194
v 4.399570 -3.977052 37.966202
v -3.565943 -2.123923 37.966194
v -2.044255 -0.602239 37.966202
v 0.034419 -0.045275 37.966194
v 2.113063 -0.602239 37.966202
v 3.634750 -2.123923 37.966194
v 3.450561 1.714348 34.825489
v 7.208283 -3.977052 34.825489
v 5.951336 -0.786453 34.825489
v 4.531462 3.586538 31.659536
v 9.478208 -3.977052 31.659536
v 7.823523 0.294459 31.659536
v 7.917791 9.451860 19.943964
v 16.589518 -3.977052 19.943966
v 13.688845 3.680821 19.943966
v 9.531326 12.246559 9.963768
v 16.483549 5.294333 9.963767
v 19.977938 -3.977051 9.963765
vt 0.490745 0.906926
vt 0.486649 0.939008
vt 0.505578 0.961392
vt 0.668290 0.958640
vt 0.619319 0.757473
vt 0.469322 0.901139
vt 0.611344 0.739320
vt 0.619319 0.757473
vt 0.490745 0.906926
vt 0.668290 0.958640
vt 0.486649 0.939008
vt 0.461485 0.952012
vt 0.497120 0.981201
vt 0.505578 0.961392
vt 0.675547 0.981682
vt 0.005216 0.054015
vt 0.035783 0.009121
vt 0.011548 0.023547
vt 0.182928 0.062634
vt 0.075318 0.230268
vt 0.005216 0.054015
vt 0.182928 0.062634
vt 0.075318 0.230268
vt 0.035783 0.009121
vt 0.011548 0.023547
vt 0.008595 0.533679
vt 0.027357 0.533679
vt 0.026480 0.648286
vt 0.009473 0.648287
vt 0.029813 0.672714
vt 0.006152 0.672714
vt 0.030347 0.692994
vt 0.005606 0.692994
vt 0.032128 0.834372
vt 0.003859 0.834372
vt 0.808863 0.773012
vt 0.821390 0.743193
vt 0.821116 0.799642
vt 0.978637 0.840508
vt 0.985251 0.633572
vt 0.802296 0.731889
vt 0.985251 0.633572
vt 0.982422 0.613947
vt 0.821390 0.743193
vt 0.978637 0.840508
vt 0.808863 0.773012
vt 0.781138 0.778812
vt 0.807668 0.816468
vt 0.821116 0.799642
vt 0.979467 0.864652
vt 0.035783 0.009121
vt 0.005216 0.054015
vt 0.011548 0.023547
vt 0.182928 0.062634
vt 0.075318 0.230268
vt 0.182928 0.062634
vt 0.005216 0.054015
vt 0.075318 0.230268
vt 0.035783 0.009121
vt 0.011548 0.023547
vt 0.026480 0.648286
vt 0.027357 0.533679
vt 0.008595 0.533679
vt 0.009473 0.648287
vt 0.029813 0.672714
vt 0.006152 0.672714
vt 0.030347 0.692994
vt 0.005606 0.692994
vt 0.032128 0.834372
vt 0.003859 0.834372
vt 0.876123 0.586470
vt 0.863253 0.616142
vt 0.864179 0.559700
vt 0.707140 0.517019
vt 0.698137 0.723864
vt 0.877819 0.543031
vt 0.706589 0.492867
vt 0.707140 0.517019
vt 0.864179 0.559700
vt 0.903913 0.580991
vt 0.863253 0.616142
vt 0.698137 0.723864
vt 0.876123 0.586470
vt 0.882215 0.627667
vt 0.700740 0.743521
vt 0.168513 0.695600
vt 0.305321 0.984000
vt 0.288563 0.988828
vt 0.273118 0.996773
vt 0.089429 0.728472
vt 0.288563 0.988828
vt 0.168513 0.695600
vt 0.305321 0.984000
vt 0.246935 0.678233
vt 0.324509 0.982431
vt 0.246935 0.678233
vt 0.326297 0.673258
vt 0.326593 0.562047
vt 0.324509 0.982431
vt 0.401739 0.679695
vt 0.339930 0.984113
vt 0.236441 0.564149
vt 0.479332 0.698432
vt 0.356480 0.989044
vt 0.371661 0.997083
vt 0.142279 0.573459
vt 0.415360 0.566269
vt 0.556969 0.732435
vt 0.356480 0.989044
vt 0.508508 0.577789
vt 0.479332 0.698432
vt 0.339930 0.984113
vt 0.401739 0.679695
vt 0.326297 0.673258
vt 0.326593 0.562047
vt 0.415360 0.566269
vt 0.508508 0.577789
vt 0.610564 0.596006
vt 0.515106 0.466392
vt 0.515106 0.466392
vt 0.236441 0.564149
vt 0.417943 0.465287
vt 0.626830 0.468962
vt 0.417943 0.465287
vt 0.142279 0.573459
vt 0.038868 0.589167
vt 0.138459 0.461286
vt 0.235912 0.462846
vt 0.138459 0.461286
vt 0.510190 0.377320
vt 0.328806 0.464197
vt 0.329210 0.387067
vt 0.240371 0.382931
vt 0.026126 0.460706
vt 0.235912 0.462846
vt 0.416415 0.385482
vt 0.145979 0.371975
vt 0.328806 0.464197
vt 0.329210 0.387067
vt 0.240371 0.382931
vt 0.145979 0.371975
vt 0.037928 0.351823
vt 0.084906 0.232503
vt 0.331287 0.291761
vt 0.251943 0.285227
vt 0.171429 0.266820
vt 0.407086 0.287656
vt 0.488023 0.271831
vt 0.251943 0.285227
vt 0.171429 0.266820
vt 0.188349 0.097350
vt 0.331287 0.291761
vt 0.282536 0.148901
vt 0.234317 0.129964
vt 0.331671 0.155593
vt 0.380997 0.150558
vt 0.429808 0.133263
vt 0.282536 0.148901
vt 0.234317 0.129964
vt 0.222677 0.062474
vt 0.331671 0.155593
vt 0.371379 0.110028
vt 0.409099 0.093962
vt 0.332358 0.114867
vt 0.293524 0.108707
vt 0.256371 0.091352
vt 0.293524 0.108707
vt 0.256371 0.091352
vt 0.270498 0.028570
vt 0.332358 0.114867
vt 0.357389 0.065769
vt 0.333136 0.069717
vt 0.309034 0.064947
vt 0.379620 0.052926
vt 0.334134 0.012663
vt 0.287260 0.051343
vt 0.397159 0.030768
vt 0.287260 0.051343
vt 0.309034 0.064947
vt 0.333136 0.069717
vt 0.357389 0.065769
vt 0.379620 0.052926
vt 0.371379 0.110028
vt 0.443757 0.066304
vt 0.409099 0.093962
vt 0.380997 0.150558
vt 0.476836 0.102278
vt 0.429808 0.133263
vt 0.407086 0.287656
vt 0.575444 0.240431
vt 0.488023 0.271831
vt 0.416415 0.385482
vt 0.510190 0.377320
vt 0.618358 0.360536
vn -0.8897 -0.4507 0.0734
vn -0.6849 -0.1385 -0.7153
vn 0.0987 -0.3243 -0.9408
vn 0.4505 -0.6058 -0.6557
vn -0.7270 -0.6290 0.2754
vn -0.8896 -0.4507 0.0734
vn -0.7573 0.5867 0.2869
vn -0.4540 0.8902 0.0375
vn 0.2217 0.9202 -0.3227
vn -0.5266 0.6484 -0.5499
vn -0.6850 -0.1385 -0.7153
vn 0.2401 0.7426 -0.6252
vn 0.4505 -0.6059 -0.6557
vn 0.7226 0.6871 0.0755
vn 0.5478 -0.1049 -0.8300
vn 0.3788 0.7530 -0.5381
vn 0.6851 -0.3537 -0.6369
vn 0.6770 0.6956 0.2405
vn -0.7182 0.6931 -0.0617
vn -0.8717 -0.2005 -0.4471
vn -0.4315 0.8484 0.3067
vn -0.5457 -0.3030 -0.7813
vn -0.3727 0.4302 -0.8222
vn -0.5457 -0.3029 -0.7813
vn 0.5478 -0.1048 -0.8300
vn -0.3728 0.4302 -0.8222
vn 0.3787 0.7530 -0.5381
vn -0.4315 0.8484 0.3066
vn 0.6849 -0.1385 -0.7153
vn 0.8916 -0.4461 0.0774
vn -0.1009 -0.3237 -0.9408
vn -0.4498 -0.6073 -0.6549
vn 0.7249 -0.6317 0.2747
vn 0.7575 0.5881 0.2836
vn 0.4501 0.8915 0.0514
vn -0.2129 0.9217 -0.3244
vn 0.5242 0.6592 -0.5392
vn 0.6850 -0.1385 -0.7153
vn -0.1009 -0.3238 -0.9407
vn -0.2461 0.7464 -0.6183
vn -0.4498 -0.6073 -0.6548
vn 0.5608 0.1292 -0.8178
vn 0.7478 -0.6571 0.0951
vn 0.3788 -0.7530 -0.5381
vn 0.6798 0.4167 -0.6035
vn 0.7210 -0.6511 0.2371
vn -0.8660 0.2849 -0.4109
vn -0.7451 -0.6653 -0.0464
vn -0.4542 -0.8352 0.3102
vn -0.5554 0.3286 -0.7639
vn -0.3727 -0.4302 -0.8222
vn -0.8661 0.2849 -0.4108
vn 0.6797 0.4167 -0.6036
vn -0.3728 -0.4302 -0.8222
vn 0.3787 -0.7530 -0.5381
vn 0.8772 0.0004 -0.4802
vn 0.7735 -0.5146 0.3699
vn 0.1861 -0.3522 -0.9172
vn -0.0236 -0.8714 -0.4901
vn 0.5738 -0.6648 0.4783
vn -0.0237 -0.8714 -0.4901
vn -0.0282 0.8105 -0.5851
vn 0.2943 0.7616 -0.5774
vn 0.4444 0.8703 0.2125
vn 0.6528 0.5271 0.5441
vn 0.7998 0.5916 -0.1020
vn -0.7221 0.5341 -0.4398
vn -0.4345 0.7411 -0.5118
vn -0.6704 0.5439 -0.5047
vn -0.8197 0.2185 -0.5294
vn -0.8969 -0.0274 -0.4415
vn -0.7668 -0.3892 -0.5103
vn -0.7188 -0.5509 -0.4242
vn -0.4850 -0.7181 -0.4991
vn -0.3796 -0.8222 -0.4242
vn -0.0000 -0.8635 -0.5044
vn -0.4115 0.8137 -0.4106
vn -0.0442 0.8951 -0.4437
vn 0.0000 0.9489 -0.3156
vn 0.0767 0.8584 -0.5072
vn 0.3790 0.8212 -0.4266
vn 0.5011 0.6992 -0.5099
vn -0.5459 0.7766 -0.3144
vn 0.7220 0.5341 -0.4398
vn 0.6704 0.5440 -0.5047
vn 0.8197 0.2185 -0.5294
vn -0.8125 0.4841 -0.3248
vn 0.5459 0.7766 -0.3144
vn 0.8969 -0.0274 -0.4415
vn 0.7668 -0.3892 -0.5103
vn 0.8125 0.4841 -0.3248
vn 0.7188 -0.5509 -0.4242
vn 0.4850 -0.7181 -0.4991
vn 0.3796 -0.8222 -0.4242
vn 0.0000 -0.9051 -0.4252
vn 0.0000 -0.9489 -0.3156
vn 0.5459 -0.7766 -0.3144
vn 0.8125 -0.4841 -0.3248
vn 0.9489 0.0000 -0.3157
vn 0.8229 0.5330 -0.1968
vn 0.8227 -0.5333 -0.1968
vn -0.5459 -0.7766 -0.3144
vn 0.4624 0.8747 -0.1452
vn 0.9930 0.0000 -0.1181
vn 0.4624 -0.8747 -0.1452
vn -0.8125 -0.4841 -0.3248
vn -0.9489 0.0000 -0.3157
vn -0.8093 -0.5611 -0.1738
vn -0.4155 -0.8949 -0.1628
vn -0.8093 0.5611 -0.1738
vn 0.8505 -0.5136 0.1132
vn -0.0000 -0.9863 -0.1647
vn 0.0370 -0.9929 0.1131
vn -0.4969 -0.8567 0.1381
vn -0.9930 -0.0000 -0.1181
vn -0.4155 0.8949 -0.1628
vn 0.5366 -0.8260 0.1727
vn -0.8455 -0.5087 0.1625
vn 0.0000 0.9863 -0.1647
vn 0.0370 0.9929 0.1131
vn -0.4969 0.8567 0.1381
vn -0.8455 0.5087 0.1625
vn -0.9895 -0.0000 0.1448
vn -0.9207 -0.0000 0.3903
vn -0.0036 -0.9136 0.4066
vn -0.4599 -0.7894 0.4066
vn -0.7543 -0.4892 0.4377
vn 0.4537 -0.7930 0.4066
vn 0.7652 -0.4997 0.4060
vn -0.4599 0.7894 0.4066
vn -0.7543 0.4892 0.4377
vn -0.8406 0.0000 0.5417
vn -0.0036 0.9136 0.4066
vn -0.4247 -0.7321 0.5326
vn -0.7034 -0.4599 0.5419
vn -0.0017 -0.8464 0.5326
vn 0.4217 -0.7338 0.5326
vn 0.7083 -0.4646 0.5314
vn -0.4247 0.7321 0.5326
vn -0.7034 0.4599 0.5419
vn -0.7900 0.0000 0.6131
vn -0.0017 0.8464 0.5326
vn 0.3949 -0.6896 0.6071
vn 0.6628 -0.4403 0.6056
vn -0.0028 -0.7946 0.6071
vn -0.3997 -0.6868 0.6071
vn -0.6550 -0.4326 0.6196
vn -0.3997 0.6868 0.6071
vn -0.6550 0.4326 0.6196
vn -0.6311 -0.0000 0.7757
vn -0.0028 0.7946 0.6071
vn 0.2801 -0.5687 0.7734
vn -0.0415 -0.6334 0.7727
vn -0.3520 -0.5272 0.7734
vn 0.5088 -0.3782 0.7734
vn 0.0000 -0.0000 1.0000
vn -0.4951 -0.3318 0.8030
vn 0.6311 -0.0000 0.7757
vn -0.4951 0.3318 0.8030
vn -0.3520 0.5272 0.7734
vn -0.0415 0.6334 0.7727
vn 0.2801 0.5687 0.7734
vn 0.5088 0.3782 0.7734
vn 0.3949 0.6896 0.6071
vn 0.7900 0.0000 0.6131
vn 0.6628 0.4403 0.6056
vn 0.4217 0.7338 0.5326
vn 0.8406 0.0000 0.5417
vn 0.7083 0.4646 0.5314
vn 0.4537 0.7930 0.4066
vn 0.9207 -0.0000 0.3903
vn 0.7652 0.4997 0.4060
vn 0.5366 0.8260 0.1727
vn 0.8505 0.5136 0.1132
vn 0.9895 -0.0000 0.1448
usemtl DdtStandardDiffuse.001
s 1
f 3/1/1 2/2/2 1/3/3
f 3/1/1 1/3/3 4/4/4
f 3/1/1 4/4/4 5/5/5
f 8/6/6 7/7/5 6/8/7
f 8/6/6 6/8/7 9/9/8
f 10/10/9 9/9/8 6/8/7
f 11/11/10 8/6/6 9/9/8
f 11/11/10 12/12/11 8/6/6
f 13/13/3 12/12/11 11/11/10
f 10/10/9 14/14/12 9/9/8
f 9/9/8 14/14/12 11/11/10
f 13/13/3 11/11/10 14/14/12
f 15/15/13 14/14/12 10/10/9
f 15/15/13 13/13/3 14/14/12
f 18/16/14 17/17/15 16/18/16
f 19/19/17 17/17/15 18/16/14
f 19/19/17 18/16/14 20/20/18
f 23/21/19 22/22/20 21/23/21
f 23/21/19 24/24/22 22/22/20
f 25/25/23 24/24/22 23/21/19
f 28/26/17 27/27/20 26/28/24
f 28/26/17 26/28/24 29/29/25
f 29/29/25 26/28/24 30/30/26
f 29/29/25 30/30/26 31/31/27
f 31/31/27 30/30/26 32/32/19
f 31/31/27 32/32/19 33/33/14
f 33/33/14 32/32/19 34/34/28
f 33/33/14 34/34/28 35/35/18
f 38/36/29 37/37/30 36/38/31
f 39/39/32 36/38/31 37/37/30
f 39/39/32 37/37/30 40/40/33
f 43/41/30 42/42/34 41/43/33
f 43/41/30 44/44/35 42/42/34
f 45/45/36 42/42/34 44/44/35
f 43/41/30 46/46/37 44/44/35
f 43/41/30 47/47/38 46/46/37
f 48/48/39 46/46/37 47/47/38
f 45/45/36 44/44/35 49/49/40
f 49/49/40 44/44/35 46/46/37
f 48/48/39 49/49/40 46/46/37
f 50/50/41 45/45/36 49/49/40
f 50/50/41 49/49/40 48/48/39
f 53/51/42 52/52/43 51/53/44
f 54/54/45 52/52/43 53/51/42
f 54/54/45 55/55/46 52/52/43
f 58/56/47 57/57/48 56/58/49
f 58/56/47 59/59/50 57/57/48
f 59/59/50 60/60/51 57/57/48
f 63/61/50 62/62/52 61/63/53
f 63/61/50 61/63/53 64/64/42
f 65/65/54 63/61/50 64/64/42
f 65/65/54 64/64/42 66/66/55
f 67/67/48 65/65/54 66/66/55
f 67/67/48 66/66/55 68/68/43
f 69/69/49 67/67/48 68/68/43
f 69/69/49 68/68/43 70/70/46
f 73/71/56 72/72/57 71/73/58
f 72/72/57 74/74/59 71/73/58
f 72/72/57 75/75/60 74/74/59
f 78/76/58 77/77/61 76/78/62
f 78/76/58 76/78/62 79/79/63
f 80/80/56 78/76/58 79/79/63
f 76/78/62 81/81/64 79/79/63
f 76/78/62 82/82/65 81/81/64
f 80/80/56 79/79/63 83/83/66
f 79/79/63 81/81/64 83/83/66
f 84/84/57 80/80/56 83/83/66
f 84/84/57 83/83/66 81/81/64
f 84/84/57 81/81/64 82/82/65
f 84/84/57 82/82/65 85/85/60
f 88/86/67 87/87/68 86/88/69
f 89/89/70 88/86/67 86/88/69
f 90/90/71 88/86/67 89/89/70
f 91/91/72 90/90/71 89/89/70
f 92/92/73 90/90/71 91/91/72
f 92/92/73 91/91/72 93/93/74
f 92/92/73 93/93/74 94/94/75
f 94/94/75 93/93/74 95/95/76
f 88/86/67 96/96/77 87/87/68
f 87/87/68 96/96/77 97/97/78
f 96/96/77 98/98/79 97/97/78
f 87/87/68 97/97/78 99/99/80
f 99/99/80 97/97/78 100/100/81
f 98/98/79 100/100/81 97/97/78
f 99/99/80 100/100/81 101/101/82
f 88/86/67 102/102/83 96/96/77
f 96/96/77 102/102/83 98/98/79
f 101/101/82 100/100/81 103/103/84
f 101/101/82 103/103/84 104/104/85
f 103/103/84 105/105/86 104/104/85
f 88/86/67 106/106/87 102/102/83
f 90/90/71 106/106/87 88/86/67
f 98/98/79 107/107/88 100/100/81
f 107/107/88 103/103/84 100/100/81
f 105/105/86 103/103/84 108/108/89
f 108/108/89 109/109/90 105/105/86
f 107/107/88 110/110/91 103/103/84
f 108/108/89 103/103/84 110/110/91
f 111/111/92 109/109/90 108/108/89
f 111/111/92 112/112/93 109/109/90
f 111/111/92 113/113/94 112/112/93
f 113/113/94 95/95/76 112/112/93
f 113/113/94 114/114/95 95/95/76
f 115/115/96 114/114/95 113/113/94
f 94/94/75 95/95/76 114/114/95
f 115/115/96 94/94/75 114/114/95
f 116/116/97 113/113/94 111/111/92
f 115/115/96 113/113/94 116/116/97
f 117/117/98 111/111/92 108/108/89
f 116/116/97 111/111/92 117/117/98
f 108/108/89 110/110/91 118/118/99
f 117/117/98 108/108/89 118/118/99
f 107/107/88 119/119/100 110/110/91
f 118/118/99 110/110/91 119/119/100
f 120/120/101 116/116/97 117/117/98
f 120/120/101 117/117/98 118/118/99
f 115/115/96 121/121/102 94/94/75
f 121/121/102 92/92/73 94/94/75
f 107/107/88 122/122/103 119/119/100
f 98/98/79 122/122/103 107/107/88
f 118/118/99 119/119/100 123/123/104
f 120/120/101 118/118/99 123/123/104
f 120/120/101 124/124/105 116/116/97
f 124/124/105 115/115/96 116/116/97
f 121/121/102 125/125/106 92/92/73
f 125/125/106 90/90/71 92/92/73
f 125/125/106 126/126/107 90/90/71
f 90/90/71 126/126/107 106/106/87
f 127/127/108 125/125/106 121/121/102
f 127/127/108 126/126/107 125/125/106
f 128/128/109 121/121/102 115/115/96
f 127/127/108 121/121/102 128/128/109
f 126/126/107 129/129/110 106/106/87
f 129/129/110 102/102/83 106/106/87
f 130/130/111 120/120/101 123/123/104
f 130/130/111 124/124/105 120/120/101
f 128/128/109 115/115/96 131/131/112
f 124/124/105 131/131/112 115/115/96
f 132/132/113 128/128/109 131/131/112
f 132/132/113 131/131/112 124/124/105
f 133/133/114 127/127/108 128/128/109
f 132/132/113 133/133/114 128/128/109
f 127/127/108 134/134/115 126/126/107
f 126/126/107 134/134/115 129/129/110
f 129/129/110 135/135/116 102/102/83
f 135/135/116 98/98/79 102/102/83
f 130/130/111 136/136/117 124/124/105
f 132/132/113 124/124/105 136/136/117
f 133/133/114 137/137/118 127/127/108
f 137/137/118 134/134/115 127/127/108
f 135/135/116 138/138/119 98/98/79
f 98/98/79 138/138/119 122/122/103
f 135/135/116 139/139/120 138/138/119
f 122/122/103 138/138/119 139/139/120
f 129/129/110 140/140/121 135/135/116
f 135/135/116 140/140/121 139/139/120
f 134/134/115 141/141/122 129/129/110
f 129/129/110 141/141/122 140/140/121
f 137/137/118 142/142/123 134/134/115
f 134/134/115 142/142/123 141/141/122
f 143/143/124 142/142/123 137/137/118
f 143/143/124 141/141/122 142/142/123
f 144/144/125 133/133/114 132/132/113
f 145/145/126 137/137/118 133/133/114
f 144/144/125 145/145/126 133/133/114
f 143/143/124 137/137/118 146/146/127
f 145/145/126 146/146/127 137/137/118
f 147/147/128 144/144/125 132/132/113
f 147/147/128 132/132/113 136/136/117
f 148/148/129 147/147/128 136/136/117
f 148/148/129 136/136/117 130/130/111
f 141/141/122 149/149/130 140/140/121
f 143/143/124 150/150/131 141/141/122
f 141/141/122 150/150/131 149/149/130
f 151/151/132 143/143/124 146/146/127
f 151/151/132 150/150/131 143/143/124
f 140/140/121 149/149/130 152/152/133
f 140/140/121 152/152/133 139/139/120
f 153/153/134 146/146/127 145/145/126
f 151/151/132 146/146/127 154/154/135
f 153/153/134 154/154/135 146/146/127
f 155/155/136 153/153/134 145/145/126
f 155/155/136 145/145/126 144/144/125
f 156/156/137 155/155/136 144/144/125
f 156/156/137 144/144/125 147/147/128
f 157/157/138 156/156/137 147/147/128
f 157/157/138 147/147/128 148/148/129
f 150/150/131 158/158/139 149/149/130
f 151/151/132 159/159/140 150/150/131
f 150/150/131 159/159/140 158/158/139
f 160/160/141 151/151/132 154/154/135
f 160/160/141 159/159/140 151/151/132
f 149/149/130 158/158/139 161/161/142
f 149/149/130 161/161/142 152/152/133
f 162/162/143 155/155/136 156/156/137
f 163/163/144 156/156/137 157/157/138
f 163/163/144 162/162/143 156/156/137
f 162/162/143 164/164/145 155/155/136
f 164/164/145 153/153/134 155/155/136
f 165/165/146 154/154/135 153/153/134
f 164/164/145 165/165/146 153/153/134
f 160/160/141 154/154/135 166/166/147
f 165/165/146 166/166/147 154/154/135
f 159/159/140 167/167/148 158/158/139
f 160/160/141 168/168/149 159/159/140
f 159/159/140 168/168/149 167/167/148
f 169/169/150 160/160/141 166/166/147
f 169/169/150 168/168/149 160/160/141
f 158/158/139 167/167/148 170/170/151
f 158/158/139 170/170/151 161/161/142
f 171/171/152 164/164/145 162/162/143
f 172/172/153 165/165/146 164/164/145
f 171/171/152 172/172/153 164/164/145
f 173/173/154 166/166/147 165/165/146
f 172/172/153 173/173/154 165/165/146
f 174/174/155 171/171/152 162/162/143
f 174/174/155 162/162/143 163/163/144
f 175/175/156 172/172/153 171/171/152
f 175/175/156 173/173/154 172/172/153
f 175/175/156 171/171/152 174/174/155
f 175/175/156 176/176/157 173/173/154
f 175/175/156 169/169/150 176/176/157
f 173/173/154 176/176/157 166/166/147
f 169/169/150 166/166/147 176/176/157
f 177/177/158 174/174/155 163/163/144
f 175/175/156 174/174/155 177/177/158
f 169/169/150 175/175/156 178/178/159
f 169/169/150 178/178/159 168/168/149
f 168/168/149 178/178/159 179/179/160
f 178/178/159 175/175/156 179/179/160
f 168/168/149 179/179/160 167/167/148
f 167/167/148 179/179/160 180/180/161
f 179/179/160 175/175/156 180/180/161
f 167/167/148 180/180/161 170/170/151
f 180/180/161 175/175/156 181/181/162
f 170/170/151 180/180/161 181/181/162
f 181/181/162 175/175/156 182/182/163
f 182/182/163 175/175/156 177/177/158
f 170/170/151 181/181/162 183/183/164
f 183/183/164 181/181/162 182/182/163
f 161/161/142 170/170/151 183/183/164
f 177/177/158 163/163/144 184/184/165
f 184/184/165 163/163/144 157/157/138
f 185/185/166 182/182/163 177/177/158
f 183/183/164 182/182/163 185/185/166
f 185/185/166 177/177/158 184/184/165
f 161/161/142 183/183/164 186/186/167
f 186/186/167 183/183/164 185/185/166
f 152/152/133 161/161/142 186/186/167
f 184/184/165 157/157/138 187/187/168
f 148/148/129 187/187/168 157/157/138
f 188/188/169 185/185/166 184/184/165
f 186/186/167 185/185/166 188/188/169
f 188/188/169 184/184/165 187/187/168
f 152/152/133 186/186/167 189/189/170
f 189/189/170 186/186/167 188/188/169
f 139/139/120 152/152/133 189/189/170
f 148/148/129 190/190/171 187/187/168
f 130/130/111 190/190/171 148/148/129
f 191/191/172 188/188/169 187/187/168
f 189/189/170 188/188/169 191/191/172
f 191/191/172 187/187/168 190/190/171
f 139/139/120 189/189/170 192/192/173
f 192/192/173 189/189/170 191/191/172
f 122/122/103 139/139/120 192/192/173
f 192/192/173 191/191/172 193/193/174
f 122/122/103 192/192/173 193/193/174
f 193/193/174 191/191/172 190/190/171
f 122/122/103 193/193/174 119/119/100
f 193/193/174 123/123/104 119/119/100
f 130/130/111 123/123/104 194/194/175
f 130/130/111 194/194/175 190/190/171
f 193/193/174 194/194/175 123/123/104
f 193/193/174 190/190/171 194/194/175
